<mxfile host="Electron" agent="Mozilla/5.0 (Windows NT 10.0; Win64; x64) AppleWebKit/537.36 (KHTML, like Gecko) draw.io/26.1.1 Chrome/132.0.6834.210 Electron/34.3.3 Safari/537.36" version="26.1.1">
  <diagram name="产品故事-流程" id="0">
    <mxGraphModel dx="941" dy="644" grid="1" gridSize="10" guides="1" tooltips="1" connect="1" arrows="1" fold="1" page="1" pageScale="1" pageWidth="1200" pageHeight="800" math="0" shadow="0">
      <root>
        <mxCell id="0" />
        <mxCell id="1" parent="0" />
        <mxCell id="n1" value="目标用户画像" style="rounded=1;whiteSpace=wrap;html=1;fillColor=#ffe6cc;strokeColor=#d79b00;" parent="1" vertex="1">
          <mxGeometry x="60" y="100" width="160" height="70" as="geometry" />
        </mxCell>
        <mxCell id="n2" value="核心痛点" style="rounded=1;whiteSpace=wrap;html=1;fillColor=#f8cecc;strokeColor=#b85450;" parent="1" vertex="1">
          <mxGeometry x="260" y="100" width="160" height="70" as="geometry" />
        </mxCell>
        <mxCell id="n3" value="解决方案亮点" style="rounded=1;whiteSpace=wrap;html=1;fillColor=#dae8fc;strokeColor=#6c8ebf;" parent="1" vertex="1">
          <mxGeometry x="460" y="100" width="180" height="70" as="geometry" />
        </mxCell>
        <mxCell id="n4" value="关键场景/用例" style="rounded=1;whiteSpace=wrap;html=1;fillColor=#e1d5e7;strokeColor=#9673a6;" parent="1" vertex="1">
          <mxGeometry x="680" y="100" width="180" height="70" as="geometry" />
        </mxCell>
        <mxCell id="n5" value="成功指标(KPI)" style="rounded=1;whiteSpace=wrap;html=1;fillColor=#d5e8d4;strokeColor=#82b366;" parent="1" vertex="1">
          <mxGeometry x="900" y="100" width="180" height="70" as="geometry" />
        </mxCell>
        <mxCell id="e12" style="edgeStyle=elbowEdgeStyle;rounded=1;endArrow=block;html=1;strokeColor=#6c8ebf;flowAnimation=1;strokeWidth=3;" parent="1" source="n1" target="n2" edge="1">
          <mxGeometry relative="1" as="geometry" />
        </mxCell>
        <mxCell id="e23" style="edgeStyle=elbowEdgeStyle;rounded=1;endArrow=block;html=1;strokeColor=#6c8ebf;flowAnimation=1;strokeWidth=3;" parent="1" source="n2" target="n3" edge="1">
          <mxGeometry relative="1" as="geometry" />
        </mxCell>
        <mxCell id="e34" style="edgeStyle=elbowEdgeStyle;rounded=1;endArrow=block;html=1;strokeColor=#6c8ebf;flowAnimation=1;strokeWidth=3;" parent="1" source="n3" target="n4" edge="1">
          <mxGeometry relative="1" as="geometry" />
        </mxCell>
        <mxCell id="e45" style="edgeStyle=elbowEdgeStyle;rounded=1;endArrow=block;html=1;strokeColor=#6c8ebf;flowAnimation=1;strokeWidth=3;" parent="1" source="n4" target="n5" edge="1">
          <mxGeometry relative="1" as="geometry" />
        </mxCell>
      </root>
    </mxGraphModel>
  </diagram>
</mxfile>
